<?xml version="1.0" encoding="UTF-8" standalone="no"?>
<svg
   xmlns:dc="http://purl.org/dc/elements/1.1/"
   xmlns:cc="http://creativecommons.org/ns#"
   xmlns:rdf="http://www.w3.org/1999/02/22-rdf-syntax-ns#"
   xmlns:svg="http://www.w3.org/2000/svg"
   xmlns="http://www.w3.org/2000/svg"
   xmlns:xlink="http://www.w3.org/1999/xlink"
   xmlns:sodipodi="http://sodipodi.sourceforge.net/DTD/sodipodi-0.dtd"
   xmlns:inkscape="http://www.inkscape.org/namespaces/inkscape"
   version="1.1"
   x="0px"
   y="0px"
   width="32"
   height="32"
   viewBox="-5 -5.663 32 32"
   overflow="visible"
   enable-background="new -5 -5.663 100 100"
   xml:space="preserve"
   id="svg2"
   inkscape:version="0.48+devel r"
   sodipodi:docname="death.svg"
   style="overflow:visible"><metadata
     id="metadata22"><rdf:RDF><cc:Work
         rdf:about=""><dc:format>image/svg+xml</dc:format><dc:type
           rdf:resource="http://purl.org/dc/dcmitype/StillImage" /><dc:title /></cc:Work></rdf:RDF></metadata><sodipodi:namedview
     pagecolor="#ffffff"
     bordercolor="#666666"
     borderopacity="1"
     objecttolerance="10"
     gridtolerance="10"
     guidetolerance="10"
     inkscape:pageopacity="0"
     inkscape:pageshadow="2"
     inkscape:window-width="640"
     inkscape:window-height="480"
     id="namedview20"
     showgrid="false"
     inkscape:object-nodes="true"
     inkscape:snap-intersection-paths="true"
     inkscape:zoom="16"
     inkscape:cx="33.202955"
     inkscape:cy="11.71934"
     inkscape:current-layer="svg2" /><defs
     id="defs4"><linearGradient
       id="linearGradient4110"
       inkscape:collect="always"><stop
         id="stop4076"
         offset="0"
         style="stop-color:#000000;stop-opacity:1;" /><stop
         id="stop4078"
         offset="1"
         style="stop-color:#2e3436;stop-opacity:1" /></linearGradient><linearGradient
       inkscape:collect="always"
       id="linearGradient4080"><stop
         style="stop-color:#eeeeec;stop-opacity:1"
         offset="0"
         id="stop4112" /><stop
         style="stop-color:#888a85;stop-opacity:1"
         offset="1"
         id="stop4114" /></linearGradient><linearGradient
       inkscape:collect="always"
       xlink:href="#linearGradient4110"
       id="linearGradient4116"
       x1="10.823227"
       y1="-5.3397803"
       x2="10.823227"
       y2="25.716572"
       gradientUnits="userSpaceOnUse" /><linearGradient
       inkscape:collect="always"
       xlink:href="#linearGradient4080"
       id="linearGradient4072"
       x1="10.625005"
       y1="-4.9351597"
       x2="10.625005"
       y2="25.984159"
       gradientUnits="userSpaceOnUse" /></defs><path
     style="fill:#d3d7cf;stroke:none;fill-opacity:1"
     d="m 2.1159018,-4.9351598 -2.07409604,0.5577122 c -0.85079,3.4730835 -1.27651896,6.9471566 -2.33983396,10.3496277 -0.992014,3.1186451 -2.055297,6.1673819 -2.19721,9.4286289 -0.07061,2.764551 0.638485,5.955025 3.119554,7.584615 1.77219196,1.204884 4.820187,2.268263 6.876205,2.623735 l 10.9995082,0 c 2.055329,-0.355472 5.103653,-1.418851 6.876878,-2.623735 2.48038,-1.629246 3.189854,-4.819719 3.118209,-7.584615 C 26.353892,12.139562 25.290969,9.091498 24.297232,5.9728532 23.233918,2.5703821 22.808861,-0.9043645 21.958071,-4.3774476 l -2.072078,-0.5577122 -17.7700912,0 z"
     id="path3278"
     inkscape:connector-curvature="0" /><path
     id="path18"
     style="fill:url(#linearGradient4116);fill-opacity:1"
     d="m 8.4480839,12.699233 0,4.165427 c 0.5466412,0.04168 1.1142937,0.06958 1.7012351,0.08473 l 0,-4.336273 c -0.5872858,0.01481 -1.1542495,0.04478 -1.7012351,0.08611 z M 4.1383331,13.4305 c -0.035134,-0.45054 -0.059245,-0.909002 -0.059245,-1.374009 0,-0.614498 0.039956,-1.213151 0.1002348,-1.800093 -2.5637368,-2.0201953 -4.21537166,-5.1460735 -4.21537166,-8.664624 0,-2.4455907 0.80532268,-4.6979453 2.15177536,-6.5269715 l -2.07427424,0.5573191 c -0.85079,3.47308319 -1.27618496,6.9475442 -2.33950026,10.3500153 -0.9920142,3.1186447 -2.0553295,6.1670221 -2.1972427,9.4282691 -0.070612,2.76455 0.6382648,5.955185 3.1193337,7.584775 1.77219213,1.204884 4.8202248,2.268199 6.8762432,2.623671 C 5.074891,24.190065 4.0821879,22.773 4.224101,21.283601 c 1.2055729,0.42574 2.1972427,1.489055 3.5450731,1.629935 0.2831374,-0.707844 -0.071645,-1.557945 -0.2128697,-2.19621 0.85079,0.14088 1.4174092,0.850446 2.2678548,0.992015 0.105057,-0.437107 0.091279,-0.922436 0.012056,-1.430499 -2.375323,-0.06923 -4.339029,-0.558008 -5.233564,-4.013868 0.6200089,0.166024 1.3443859,0.307248 2.1441974,0.418506 l 0,-3.803066 C 5.7403672,13.019571 4.8499655,13.205919 4.1383331,13.4305 Z m 7.7122219,-0.817379 0,4.336273 c 0.586597,-0.01516 1.154939,-0.04306 1.701235,-0.08473 l 0,-4.165427 c -0.546296,-0.04133 -1.113949,-0.0713 -1.701235,-0.08611 z m -3.485139,-3.7265978 1.4831991,0 2.3026439,0 1.483888,0 L 12.95486,7.7091952 11.000109,4.3249799 9.0453591,7.7091952 Z M 5.8592023,5.8984247 c 0.6082976,0 1.1463275,-0.2242366 1.5631113,-0.5831528 C 7.9599991,4.8526763 8.2892927,4.1606775 8.2479588,3.3773996 8.17528,1.9858241 6.987274,0.85534118 5.5950096,0.85534118 c -0.3713165,0 -0.7164548,0.0847345 -1.0264592,0.22940332 -0.8514789,0.3971501 -1.415687,1.2727405 -1.3619529,2.2929996 0.072334,1.3898532 1.2603403,2.5206806 2.6526048,2.5206806 z m 10.2814697,0 c 1.392609,0 2.58027,-1.1304829 2.653294,-2.5210251 C 18.847355,2.3571405 18.282458,1.4815502 17.431668,1.0844 17.120975,0.94007573 16.777215,0.85499673 16.405209,0.85499673 c -1.392609,0 -2.58027,1.13048287 -2.653638,2.52205847 -0.03961,0.7832779 0.288993,1.4752767 0.825645,1.9378722 0.417129,0.3592607 0.955503,0.5834973 1.563456,0.5834973 z m 8.156217,0.074057 C 23.233574,2.5700102 22.808523,-0.90445076 21.957733,-4.377534 l -2.072207,-0.5576635 c 1.345764,1.8293707 2.150053,4.0813808 2.150053,6.5269715 0,3.518206 -1.651635,6.6444287 -4.215027,8.664624 0.06131,0.586598 0.101268,1.185251 0.101268,1.800093 0,0.465351 -0.0248,0.923813 -0.05993,1.374009 -0.710944,-0.224237 -1.60169,-0.410584 -2.608516,-0.550086 l 0,3.803066 c 0.799123,-0.111258 1.523845,-0.252137 2.143853,-0.418506 -0.89419,3.45586 -2.858241,3.944634 -5.233219,4.014213 -0.07888,0.508407 -0.09369,0.993736 0.01137,1.430498 0.85079,-0.141569 1.418098,-0.851134 2.268888,-0.992014 -0.142947,0.638265 -0.496696,1.488366 -0.212525,2.196209 1.345763,-0.14088 2.3395,-1.204195 3.543695,-1.629934 0.141224,1.489054 -0.850446,2.906464 -1.275841,4.325251 2.05533,-0.355472 5.103707,-1.418787 6.876932,-2.623671 2.48038,-1.629246 3.190291,-4.819881 3.118645,-7.584776 -0.141224,-3.261247 -1.204539,-6.3096239 -2.198276,-9.4282687 z" /><path
     inkscape:connector-curvature="0"
     id="path3264"
     d="m 2.1159018,-4.9351597 -2.07409604,0.5577122 c -0.85079,3.47308355 -1.27651896,6.9471566 -2.33983396,10.3496277 -0.992014,3.1186451 -2.055297,6.1673818 -2.19721,9.4286288 -0.07061,2.764551 0.638485,5.955025 3.119554,7.584615 1.77219196,1.204884 4.820187,2.268263 6.876205,2.623735 l 10.9995082,0 c 2.055329,-0.355472 5.103653,-1.418851 6.876878,-2.623735 2.48038,-1.629246 3.189854,-4.819719 3.118209,-7.584615 C 26.353892,12.139562 25.290969,9.0914981 24.297232,5.9728533 23.233918,2.5703822 22.808861,-0.90436435 21.958071,-4.3774475 l -2.072078,-0.5577122 -17.7700912,0 z"
     style="fill:none;stroke:url(#linearGradient4072)" /></svg>